<svg width="18" height="20" viewBox="0 0 18 20" fill="none" xmlns="http://www.w3.org/2000/svg">
<path d="M7.9792 2.27168L1.59197 16.4656C1.10239 17.5536 0.857609 18.0975 0.960799 18.4166C1.05015 18.6928 1.2714 18.9062 1.55064 18.9856C1.87315 19.0773 2.40801 18.8132 3.47772 18.285L8.2921 15.9075C8.552 15.7791 8.682 15.715 8.8181 15.6897C8.9387 15.6673 9.0624 15.6673 9.183 15.6897C9.3192 15.715 9.4491 15.7791 9.709 15.9075L14.5234 18.285C15.5931 18.8132 16.128 19.0773 16.4505 18.9856C16.7298 18.9062 16.951 18.6928 17.0403 18.4166C17.1435 18.0975 16.8988 17.5536 16.4092 16.4656L10.0219 2.27168C9.6979 1.55162 9.5359 1.19159 9.3108 1.08032C9.1153 0.983643 8.8859 0.983643 8.6903 1.08032C8.4653 1.19159 8.3032 1.55162 7.9792 2.27168Z" stroke="black" stroke-width="1.5" stroke-linecap="round" stroke-linejoin="round"/>
</svg>
