<svg width="22" height="22" viewBox="0 0 22 22" fill="none" xmlns="http://www.w3.org/2000/svg">
<path d="M20.609 12.5616L20.8382 10.1263C21.0182 8.2137 21.1082 7.25739 20.781 6.86207C20.604 6.64823 20.3633 6.5172 20.106 6.4946C19.6303 6.45282 19.0329 7.1329 17.8381 8.49307C17.2202 9.1965 16.9113 9.5482 16.5666 9.6027C16.3757 9.6328 16.1811 9.6018 16.0047 9.5131C15.6865 9.3529 15.4743 8.91812 15.0499 8.04851L12.8131 3.46485C12.0112 1.82162 11.6102 1 11 1C10.3898 1 9.9888 1.82162 9.1869 3.46486L6.95007 8.04852C6.5257 8.91812 6.31351 9.3529 5.99526 9.5131C5.81892 9.6018 5.62434 9.6328 5.43337 9.6027C5.08872 9.5482 4.77977 9.1965 4.16187 8.49307C2.96708 7.1329 2.36968 6.45282 1.89399 6.4946C1.63666 6.5172 1.39598 6.64823 1.21899 6.86207C0.891798 7.25739 0.981798 8.2137 1.16181 10.1263L1.391 12.5616C1.76865 16.5742 1.95748 18.5805 3.14009 19.7902C4.32271 21 6.09517 21 9.6401 21H12.3599C15.9048 21 17.6773 21 18.8599 19.7902C20.0425 18.5805 20.2313 16.5742 20.609 12.5616Z" stroke="black" stroke-width="1.5"/>
<path d="M8 17H14" stroke="black" stroke-width="1.5" stroke-linecap="round"/>
</svg>
