<svg width="16" height="22" viewBox="0 0 16 22" fill="none" xmlns="http://www.w3.org/2000/svg">
<path d="M8.1605 9.87C8.0605 9.86 7.9405 9.86 7.8305 9.87C5.45055 9.79 3.56055 7.84 3.56055 5.44C3.56055 2.99 5.54055 1 8.0005 1C10.4505 1 12.4405 2.99 12.4405 5.44C12.4305 7.84 10.5405 9.79 8.1605 9.87Z" stroke="black" stroke-width="1.5" stroke-linecap="round" stroke-linejoin="round"/>
<path d="M3.1607 13.56C0.740703 15.18 0.740703 17.82 3.1607 19.43C5.9107 21.27 10.4207 21.27 13.1707 19.43C15.5907 17.81 15.5907 15.17 13.1707 13.56C10.4307 11.73 5.9207 11.73 3.1607 13.56Z" stroke="black" stroke-width="1.5" stroke-linecap="round" stroke-linejoin="round"/>
</svg>
