<svg width="22" height="22" viewBox="0 0 22 22" fill="none" xmlns="http://www.w3.org/2000/svg">
<path fill-rule="evenodd" clip-rule="evenodd" d="M10.948 0.250001H11.052C11.9505 0.249971 12.6997 0.249951 13.2945 0.329911C13.9223 0.414321 14.4891 0.599991 14.9445 1.05546C15.4 1.51093 15.5857 2.07773 15.6701 2.70552C15.7292 3.14512 15.7446 3.66909 15.7486 4.27533C16.3971 4.29614 16.9752 4.33406 17.489 4.40314C18.6614 4.56076 19.6104 4.89288 20.3588 5.64124C21.1071 6.38961 21.4392 7.33856 21.5969 8.51098C21.75 9.6502 21.75 11.1058 21.75 12.9436V13.0564C21.75 14.8942 21.75 16.3498 21.5969 17.489C21.4392 18.6614 21.1071 19.6104 20.3588 20.3588C19.6104 21.1071 18.6614 21.4392 17.489 21.5969C16.3498 21.75 14.8942 21.75 13.0564 21.75H8.94359C7.10583 21.75 5.65019 21.75 4.51098 21.5969C3.33856 21.4392 2.38961 21.1071 1.64124 20.3588C0.89288 19.6104 0.56076 18.6614 0.40314 17.489C0.24997 16.3498 0.24998 14.8942 0.25 13.0564V12.9436C0.24998 11.1058 0.24997 9.6502 0.40314 8.51098C0.56076 7.33856 0.89288 6.38961 1.64124 5.64124C2.38961 4.89288 3.33856 4.56076 4.51098 4.40314C5.02475 4.33406 5.60288 4.29614 6.2514 4.27533C6.2554 3.66909 6.27081 3.14512 6.32991 2.70552C6.41432 2.07773 6.59999 1.51093 7.05546 1.05546C7.51093 0.599991 8.07773 0.414321 8.70552 0.329911C9.3003 0.249951 10.0495 0.249971 10.948 0.250001ZM7.7518 4.25178C8.12993 4.24999 8.52694 4.25 8.94358 4.25H13.0564C13.4731 4.25 13.8701 4.24999 14.2482 4.25178C14.244 3.68146 14.23 3.25125 14.1835 2.90539C14.1214 2.44393 14.0142 2.24644 13.8839 2.11612C13.7536 1.9858 13.5561 1.87858 13.0946 1.81654C12.6116 1.7516 11.964 1.75 11 1.75C10.036 1.75 9.3884 1.7516 8.90539 1.81654C8.44393 1.87858 8.24643 1.9858 8.11612 2.11612C7.9858 2.24644 7.87858 2.44393 7.81654 2.90539C7.77004 3.25125 7.75601 3.68146 7.7518 4.25178ZM4.71085 5.88976C3.70476 6.02503 3.12511 6.2787 2.7019 6.70191C2.27869 7.12511 2.02502 7.70476 1.88976 8.71085C1.75159 9.7385 1.75 11.0932 1.75 13C1.75 14.9068 1.75159 16.2615 1.88976 17.2892C2.02502 18.2952 2.27869 18.8749 2.7019 19.2981C3.12511 19.7213 3.70476 19.975 4.71085 20.1102C5.73851 20.2484 7.09318 20.25 9 20.25H13C14.9068 20.25 16.2615 20.2484 17.2892 20.1102C18.2952 19.975 18.8749 19.7213 19.2981 19.2981C19.7213 18.8749 19.975 18.2952 20.1102 17.2892C20.2484 16.2615 20.25 14.9068 20.25 13C20.25 11.0932 20.2484 9.7385 20.1102 8.71085C19.975 7.70476 19.7213 7.12511 19.2981 6.70191C18.8749 6.2787 18.2952 6.02503 17.2892 5.88976C16.2615 5.7516 14.9068 5.75 13 5.75H9C7.09318 5.75 5.73851 5.7516 4.71085 5.88976ZM11 8.25C11.4142 8.25 11.75 8.58579 11.75 9V9.0102C12.8388 9.2845 13.75 10.143 13.75 11.3333C13.75 11.7475 13.4142 12.0833 13 12.0833C12.5858 12.0833 12.25 11.7475 12.25 11.3333C12.25 10.9493 11.8242 10.4167 11 10.4167C10.1758 10.4167 9.75 10.9493 9.75 11.3333C9.75 11.7174 10.1758 12.25 11 12.25C12.3849 12.25 13.75 13.2098 13.75 14.6667C13.75 15.857 12.8388 16.7155 11.75 16.9898V17C11.75 17.4142 11.4142 17.75 11 17.75C10.5858 17.75 10.25 17.4142 10.25 17V16.9898C9.1612 16.7155 8.25 15.857 8.25 14.6667C8.25 14.2525 8.58579 13.9167 9 13.9167C9.4142 13.9167 9.75 14.2525 9.75 14.6667C9.75 15.0507 10.1758 15.5833 11 15.5833C11.8242 15.5833 12.25 15.0507 12.25 14.6667C12.25 14.2826 11.8242 13.75 11 13.75C9.6151 13.75 8.25 12.7903 8.25 11.3333C8.25 10.143 9.1612 9.2845 10.25 9.0102V9C10.25 8.58579 10.5858 8.25 11 8.25Z" fill="black"/>
</svg>
