<svg width="20" height="20" viewBox="0 0 20 20" fill="none" xmlns="http://www.w3.org/2000/svg">
<g clip-path="url(#clip0_7_13109)">
<path d="M19.7669 9.15537C19.6171 8.75232 19.3985 8.37232 19.1278 8.02998C18.3076 6.99088 17.0328 6.22248 15.4813 5.69014C15.3692 5.65275 15.2539 5.6151 15.1389 5.5808C14.5403 5.39361 13.9042 5.24381 13.2392 5.13166C12.2549 4.96471 11.2074 4.87842 10.1166 4.87842H9.92662C9.28185 4.88404 8.6517 4.9217 8.04154 4.98494C6.9651 5.0999 5.94904 5.30143 5.02236 5.58924C4.48693 5.75057 3.98049 5.94338 3.51135 6.15924C3.36182 6.22838 3.21482 6.30033 3.07092 6.3751C2.16732 6.84978 1.41041 7.43416 0.866542 8.13342C0.322401 8.83295 -0.0027944 9.66467 1.80954e-05 10.5598V10.5885C0.00310403 11.0262 0.0834947 11.4463 0.236112 11.826C0.50369 12.4997 0.990213 13.0464 1.5976 13.4694C2.51275 14.1054 3.70697 14.5029 5.08865 14.7589C6.47291 15.0149 8.05021 15.1215 9.72506 15.1215C9.82881 15.1215 9.93529 15.1215 10.0387 15.1187C12.6579 15.0956 15.0411 14.8365 16.8514 14.1658C17.7578 13.8263 18.5291 13.3803 19.0991 12.7673C19.381 12.4592 19.6115 12.1082 19.7669 11.7195C19.9224 11.331 20.0028 10.9081 19.9999 10.462V10.4331C19.9972 9.98986 19.9165 9.55814 19.7669 9.15537ZM18.7048 10.462C18.7048 10.7554 18.6559 11.0087 18.5637 11.2389C18.4026 11.6419 18.1033 12.0017 17.6342 12.3269C16.9377 12.8162 15.8669 13.2018 14.5546 13.4463C13.2423 13.694 11.6908 13.812 10.0303 13.8235C9.92658 13.8263 9.82596 13.8263 9.72506 13.8263C7.25564 13.8292 5.04818 13.579 3.53717 13.0119C2.78025 12.7328 2.20748 12.3786 1.8449 11.9815C1.66365 11.783 1.53123 11.5728 1.43904 11.3454C1.34713 11.118 1.29822 10.8676 1.29514 10.5798V10.5598C1.29514 9.97553 1.49103 9.44318 1.88818 8.92799C2.3601 8.31498 3.13724 7.74779 4.14178 7.29303C4.50998 8.00975 4.80928 8.69189 5.04541 9.256C5.47994 10.2836 6.38947 9.92658 6.15928 8.96256C6.02971 8.40408 5.8858 7.68174 5.54627 6.78096C6.46732 6.51025 7.50049 6.32307 8.60846 6.234C8.99998 7.1924 9.28779 8.10756 9.50646 8.84451C9.84908 9.98986 10.8879 9.72229 10.7614 8.66885C10.6863 8.03869 10.6203 7.2242 10.344 6.17639C11.5239 6.18791 12.6437 6.31467 13.6538 6.53053C13.8669 7.36221 14.0164 8.13936 14.1316 8.78693C14.3444 9.97557 15.395 9.81732 15.3835 8.74084C15.3807 8.27174 15.3922 7.70764 15.3346 7.01397C15.6944 7.14916 16.0311 7.29615 16.3391 7.45439C17.1131 7.85154 17.7118 8.32342 18.1062 8.83021C18.5033 9.33666 18.6992 9.86029 18.7048 10.4418L18.7048 10.462Z" fill="#FAB300"/>
</g>
<defs>
<clipPath id="clip0_7_13109">
<rect width="20" height="20" fill="white"/>
</clipPath>
</defs>
</svg>
