<svg width="20" height="20" viewBox="0 0 20 20" fill="none" xmlns="http://www.w3.org/2000/svg">
<path d="M9.99967 8.33333V5.83333M9.99967 5.83333C10.9202 5.83333 11.6663 5.08714 11.6663 4.16667C11.6663 3.24619 10.4163 1.25 9.99967 1.25C9.58301 1.25 8.33301 3.24619 8.33301 4.16667C8.33301 5.08714 9.07917 5.83333 9.99967 5.83333ZM16.6663 12.5L16.3062 13.0367C15.6954 13.947 14.3453 13.9125 13.7817 12.9722L13.749 12.9177C13.1833 11.9738 11.8155 11.9736 11.2493 12.9172C10.6833 13.8606 9.31584 13.8603 8.74984 12.9169C8.18365 11.9733 6.81587 11.973 6.24967 12.9167L6.21638 12.9722C5.65114 13.9142 4.29731 13.9464 3.68788 13.0323L3.33301 12.5M16.6663 17.5V11.6667C16.6663 9.82575 15.1739 8.33333 13.333 8.33333H6.66634C4.82539 8.33333 3.33301 9.82575 3.33301 11.6667V17.5H16.6663Z" stroke="#98A2B3" stroke-linecap="round" stroke-linejoin="round"/>
</svg>
