<svg width="17" height="17" viewBox="0 0 17 17" fill="none" xmlns="http://www.w3.org/2000/svg">
<path fill-rule="evenodd" clip-rule="evenodd" d="M11.5 15.5H5.5C3.29086 15.5 1.5 13.7091 1.5 11.5V5.5C1.5 3.29086 3.29086 1.5 5.5 1.5H11.5C13.7091 1.5 15.5 3.29086 15.5 5.5V11.5C15.5 13.7091 13.7091 15.5 11.5 15.5Z" stroke="black" stroke-width="1.5" stroke-linecap="round" stroke-linejoin="round"/>
<path d="M15.5 6.25C15.9142 6.25 16.25 5.91421 16.25 5.5C16.25 5.08579 15.9142 4.75 15.5 4.75V6.25ZM1.5 4.75C1.08579 4.75 0.75 5.08579 0.75 5.5C0.75 5.91421 1.08579 6.25 1.5 6.25V4.75ZM7.5 10.75C7.0858 10.75 6.75 11.0858 6.75 11.5C6.75 11.9142 7.0858 12.25 7.5 12.25V10.75ZM9.5 12.25C9.9142 12.25 10.25 11.9142 10.25 11.5C10.25 11.0858 9.9142 10.75 9.5 10.75V12.25ZM15.5 4.75H1.5V6.25H15.5V4.75ZM7.5 12.25H9.5V10.75H7.5V12.25Z" fill="black"/>
</svg>
