<svg width="23" height="24" viewBox="0 0 23 24" fill="none" xmlns="http://www.w3.org/2000/svg">
<path d="M10.6539 15.309C10.6943 15.7001 11.0244 15.9912 11.4092 15.9912C11.4353 15.9912 11.4617 15.9899 11.4882 15.9871C11.9059 15.944 12.2094 15.5704 12.1663 15.1528L11.8157 11.7602C11.7726 11.3425 11.3991 11.0391 10.9814 11.0822C10.5638 11.1254 10.2602 11.4989 10.3033 11.9165L10.6539 15.309Z" fill="white"/>
<path d="M15.4116 15.9871C15.4382 15.9899 15.4646 15.9912 15.4907 15.9912C15.8754 15.9912 16.2055 15.7001 16.246 15.309L16.5965 11.9164C16.6397 11.4987 16.3361 11.1252 15.9185 11.0821C15.5007 11.0396 15.1272 11.3425 15.0841 11.7601L14.7336 15.1527C14.6903 15.5704 14.9939 15.944 15.4116 15.9871Z" fill="white"/>
<path d="M9.52498 19.293C8.22739 19.293 7.17175 20.3486 7.17175 21.6462C7.17175 22.9441 8.22739 24 9.52498 24C10.8226 24 11.8783 22.9441 11.8783 21.6462C11.8783 20.3486 10.8226 19.293 9.52498 19.293ZM9.52498 22.4794C9.06579 22.4794 8.69225 22.1056 8.69225 21.6461C8.69225 21.1869 9.06579 20.8134 9.52498 20.8134C9.98417 20.8134 10.3578 21.1869 10.3578 21.6461C10.3578 22.1056 9.98417 22.4794 9.52498 22.4794Z" fill="white"/>
<path d="M17.3749 19.293C16.0773 19.293 15.0215 20.3486 15.0215 21.6462C15.0215 22.9441 16.0773 24 17.3749 24C18.6726 24 19.7284 22.9441 19.7284 21.6462C19.7284 20.3486 18.6726 19.293 17.3749 19.293ZM17.3749 22.4794C16.9157 22.4794 16.542 22.1056 16.542 21.6461C16.542 21.1869 16.9157 20.8134 17.3749 20.8134C17.8342 20.8134 18.2079 21.1869 18.2079 21.6461C18.2079 22.1056 17.8342 22.4794 17.3749 22.4794Z" fill="white"/>
<path d="M21.9224 8.54562C21.7785 8.35941 21.5564 8.25034 21.321 8.25034H6.16719L5.53091 5.80325C5.44373 5.46823 5.14126 5.23438 4.79509 5.23438H1.67907C1.25921 5.23438 0.918823 5.57476 0.918823 5.99463C0.918823 6.41449 1.25921 6.75488 1.67907 6.75488H4.20726L4.83787 9.17977C4.84131 9.19498 4.84526 9.21008 4.84962 9.22498L7.19626 18.2489C7.28344 18.5839 7.58592 18.8177 7.93208 18.8177H18.9683C19.3145 18.8177 19.6169 18.5839 19.7041 18.2489L22.0569 9.20187C22.116 8.9742 22.0664 8.73173 21.9224 8.54562ZM18.3804 17.2973H8.51981L6.56252 9.77084H20.3377L18.3804 17.2973Z" fill="white"/>
<path d="M10.306 3.98055L14.7585 3.98075L13.596 5.14332C13.2991 5.44023 13.2991 5.92162 13.596 6.21842C13.7444 6.36682 13.9391 6.44112 14.1336 6.44112C14.3281 6.44112 14.5227 6.36692 14.6711 6.21842L17.1306 3.75896C17.4275 3.46205 17.4275 2.98066 17.1306 2.68386L14.6694 0.222677C14.3725 -0.0742258 13.8911 -0.0742258 13.5942 0.222677C13.2973 0.519581 13.2973 1.00097 13.5942 1.29787L14.7567 2.46035L10.306 2.46015C9.8861 2.46015 9.54572 2.80054 9.54572 3.2204C9.54582 3.64016 9.8861 3.98055 10.306 3.98055Z" fill="white"/>
</svg>
