<svg width="20" height="20" viewBox="0 0 20 20" fill="none" xmlns="http://www.w3.org/2000/svg">
<path d="M16.4249 11.5718C15.8042 11.3378 15.3314 10.8166 15.1602 10.1779C15.022 9.66231 15.0881 9.12051 15.3461 8.65212C15.4707 8.42611 15.4579 8.14934 15.3131 7.93573C15.1682 7.72215 14.9156 7.60801 14.6598 7.63993C14.5744 7.65064 14.4874 7.65609 14.4013 7.65609C13.8514 7.65609 13.3346 7.44219 12.9462 7.0538C12.4939 6.60152 12.2803 5.97695 12.3601 5.34026C12.3921 5.08418 12.2778 4.8318 12.0642 4.68696C11.8507 4.54218 11.5739 4.52939 11.3479 4.65386C10.8849 4.90889 10.3343 4.97696 9.82206 4.8398C9.18333 4.66869 8.66222 4.19591 8.42814 3.57513C8.30386 3.24569 7.95048 3.0637 7.61029 3.15386C6.32853 3.49325 5.15306 4.17059 4.211 5.11265C2.78526 6.53849 2 8.43421 2 10.4508C2 12.4673 2.78526 14.3631 4.2111 15.7889C5.63678 17.2146 7.53257 17.9999 9.54918 18C9.54947 18 9.54963 18 9.54992 18C11.566 18 13.4616 17.2148 14.8874 15.7889C15.8295 14.8469 16.5068 13.6715 16.8462 12.3897C16.9363 12.0493 16.7544 11.696 16.4249 11.5718ZM13.9169 14.8184C12.7502 15.9851 11.1994 16.6275 9.54992 16.6274C9.54979 16.6274 9.54941 16.6274 9.54931 16.6274C7.89928 16.6273 6.34814 15.9848 5.18166 14.8184C4.01506 13.6517 3.3726 12.1006 3.3726 10.4508C3.3726 8.80089 4.01506 7.24981 5.18166 6.08321C5.82077 5.44413 6.59073 4.95403 7.43236 4.64701C7.88824 5.38738 8.61462 5.93725 9.46686 6.16556C9.97682 6.30227 10.5126 6.31911 11.0255 6.21625C11.148 6.89343 11.4737 7.52238 11.9756 8.02443C12.4752 8.52396 13.102 8.8504 13.7831 8.97353C13.6805 9.48514 13.6961 10.0171 13.8344 10.5332C14.0628 11.3855 14.6127 12.1118 15.353 12.5677C15.0461 13.4094 14.5559 14.1793 13.9169 14.8184Z" fill="#98A2B3"/>
<path d="M18.1229 8.9948C17.9953 8.86721 17.8182 8.79395 17.6375 8.79395C17.4567 8.79395 17.2797 8.86721 17.1521 8.9948C17.0244 9.12297 16.9512 9.2995 16.9512 9.48024C16.9512 9.66098 17.0244 9.83761 17.1521 9.96568C17.2802 10.0933 17.4567 10.1665 17.6375 10.1665C17.8182 10.1665 17.9948 10.0933 18.1229 9.96568C18.2506 9.83758 18.3238 9.66095 18.3238 9.48024C18.3237 9.30001 18.2506 9.12294 18.1229 8.9948Z" fill="#98A2B3"/>
<path d="M10.6815 2.20089C10.5534 2.07323 10.3768 2 10.1965 2C10.0158 2 9.8387 2.07327 9.71104 2.20089C9.58294 2.32855 9.50977 2.50559 9.50977 2.6863C9.50977 2.86704 9.58297 3.04367 9.71104 3.17132C9.8387 3.29939 10.0154 3.3726 10.1965 3.3726C10.3767 3.3726 10.5538 3.29939 10.6815 3.17132C10.8091 3.04367 10.8824 2.86659 10.8824 2.6863C10.8824 2.50559 10.8091 2.32893 10.6815 2.20089Z" fill="#98A2B3"/>
<path d="M14.8871 5.11248C14.7595 4.98482 14.5829 4.91162 14.4021 4.91162C14.2213 4.91162 14.0443 4.98482 13.9167 5.11248C13.7891 5.24014 13.7158 5.41718 13.7158 5.59792C13.7158 5.77815 13.7891 5.95526 13.9167 6.08333C14.0443 6.21102 14.2214 6.28422 14.4021 6.28422C14.5824 6.28422 14.7595 6.21095 14.8871 6.08333C15.0152 5.95522 15.0884 5.77815 15.0884 5.59792C15.0884 5.41718 15.0152 5.24014 14.8871 5.11248Z" fill="#98A2B3"/>
<path d="M11.2923 10.5378C11.1647 10.4101 10.9876 10.3369 10.8073 10.3369C10.6261 10.3369 10.4496 10.4102 10.3219 10.5378C10.1938 10.6659 10.1206 10.8425 10.1206 11.0232C10.1206 11.204 10.1939 11.381 10.3219 11.5087C10.4496 11.6363 10.6266 11.7095 10.8073 11.7095C10.9876 11.7095 11.1647 11.6363 11.2923 11.5087C11.42 11.381 11.4932 11.2039 11.4932 11.0232C11.4932 10.8425 11.42 10.6659 11.2923 10.5378Z" fill="#98A2B3"/>
<path d="M9.46227 7.79261C9.33467 7.66451 9.1576 7.59131 8.97683 7.59131C8.79612 7.59131 8.61949 7.66457 8.49183 7.79261C8.36418 7.91982 8.29053 8.09687 8.29053 8.27761C8.29053 8.45835 8.36418 8.63539 8.49183 8.76305C8.61949 8.8907 8.79605 8.96391 8.97683 8.96391C9.15757 8.96391 9.33461 8.8907 9.46227 8.76305C9.58992 8.63494 9.66312 8.45832 9.66312 8.27761C9.66312 8.09693 9.58992 7.92027 9.46227 7.79261Z" fill="#98A2B3"/>
<path d="M6.25963 9.16476C6.13204 9.03707 5.95493 8.96387 5.77419 8.96387C5.59396 8.96387 5.41685 9.03713 5.2892 9.16476C5.16109 9.29286 5.08789 9.46949 5.08789 9.65017C5.08789 9.83087 5.16116 10.0079 5.2892 10.1356C5.41685 10.2633 5.59393 10.3365 5.77419 10.3365C5.95493 10.3365 6.13197 10.2633 6.25963 10.1356C6.38729 10.0079 6.46049 9.83087 6.46049 9.65017C6.46049 9.46949 6.38729 9.29283 6.25963 9.16476Z" fill="#98A2B3"/>
<path d="M11.2923 13.7409C11.1648 13.6128 10.9877 13.5396 10.8069 13.5396C10.6267 13.5396 10.4496 13.6128 10.3219 13.7409C10.1938 13.8685 10.1206 14.0451 10.1206 14.2258C10.1206 14.4066 10.1938 14.5832 10.3219 14.7113C10.4496 14.8389 10.6266 14.9121 10.8069 14.9121C10.9876 14.9121 11.1647 14.8389 11.2923 14.7113C11.42 14.5832 11.4932 14.4066 11.4932 14.2258C11.4932 14.0451 11.42 13.8685 11.2923 13.7409Z" fill="#98A2B3"/>
<path d="M8.08971 12.3679C7.96211 12.2402 7.78501 12.167 7.60427 12.167C7.42353 12.167 7.24693 12.2403 7.11927 12.3679C6.99162 12.496 6.91797 12.6726 6.91797 12.8533C6.91797 13.034 6.99162 13.2111 7.11927 13.3387C7.24693 13.4664 7.42349 13.5396 7.60427 13.5396C7.78498 13.5396 7.96205 13.4664 8.08971 13.3387C8.21736 13.2111 8.29057 13.034 8.29057 12.8533C8.29057 12.6726 8.21736 12.4959 8.08971 12.3679Z" fill="#98A2B3"/>
</svg>
