<svg width="18" height="16" viewBox="0 0 18 16" fill="none" xmlns="http://www.w3.org/2000/svg">
<path d="M13.935 8.60062C11.955 8.60062 10.335 10.2206 10.335 12.2006C10.335 14.1806 11.955 15.8006 13.935 15.8006C15.915 15.8006 17.535 14.1806 17.535 12.2006C17.535 10.2206 15.975 8.60062 13.935 8.60062ZM13.935 14.5706C12.645 14.5706 11.595 13.5206 11.595 12.2306C11.595 10.9406 12.645 9.89062 13.935 9.89062C15.225 9.89062 16.275 10.9406 16.275 12.2306C16.275 13.5206 15.285 14.5706 13.935 14.5706ZM12.345 7.31062C12.585 7.55062 13.005 7.55062 13.245 7.31062C13.485 7.07062 13.485 6.65063 13.245 6.41063L10.575 3.83062C10.365 3.62062 10.005 3.59062 9.765 3.77062L6.015 6.62062C5.865 6.74062 5.775 6.92062 5.775 7.13062C5.775 7.34062 5.865 7.52063 6.045 7.64062L7.725 8.87062L6.585 9.68062C5.865 9.02062 4.965 8.60062 3.975 8.60062C1.995 8.60062 0.375 10.2206 0.375 12.2006C0.375 14.1806 1.995 15.8006 3.975 15.8006C5.955 15.8006 7.575 14.1806 7.575 12.2006C7.575 11.6606 7.455 11.1506 7.245 10.6706L9.105 9.38062C9.285 9.26062 9.375 9.08062 9.375 8.87062C9.375 8.66062 9.285 8.48062 9.105 8.36062L7.395 7.10063L10.035 5.09062L12.345 7.31062ZM6.285 12.2306C6.285 13.5206 5.235 14.5706 3.945 14.5706C2.655 14.5706 1.605 13.5206 1.605 12.2306C1.605 10.9406 2.655 9.89062 3.945 9.89062C4.515 9.89062 5.025 10.1006 5.445 10.4306L3.585 11.7206C3.315 11.9306 3.225 12.3206 3.435 12.5906C3.555 12.7706 3.765 12.8606 3.945 12.8606C4.065 12.8606 4.185 12.8306 4.305 12.7406L6.165 11.4506C6.255 11.6906 6.285 11.9306 6.285 12.2306ZM13.035 4.16062C14.145 4.16062 15.045 3.26062 15.045 2.15062C15.045 1.04062 14.145 0.140625 13.035 0.140625C11.925 0.140625 11.025 1.04062 11.025 2.15062C11.025 3.26062 11.925 4.16062 13.035 4.16062ZM13.035 1.43062C13.455 1.43062 13.785 1.76062 13.785 2.18062C13.785 2.60062 13.455 2.93062 13.035 2.93062C12.615 2.93062 12.285 2.60062 12.285 2.18062C12.285 1.76062 12.615 1.43062 13.035 1.43062Z" fill="white"/>
</svg>
