<svg width="20" height="20" viewBox="0 0 20 20" fill="none" xmlns="http://www.w3.org/2000/svg">
<path d="M16.0593 13.4473C17.3472 12.1593 17.9912 11.5153 18.2308 10.6798C18.4704 9.84434 18.2656 8.95692 17.8561 7.18213L17.6199 6.15865C17.2753 4.66551 17.103 3.91894 16.5918 3.40771C16.0806 2.89648 15.334 2.72419 13.8409 2.37962L12.8174 2.14343C11.0426 1.73386 10.1552 1.52908 9.31967 1.76871C8.48417 2.00832 7.84017 2.6523 6.55226 3.94024L5.02759 5.46494C2.78676 7.70576 1.66634 8.82617 1.66634 10.2184C1.66634 11.6107 2.78676 12.7311 5.02759 14.9719C7.26842 17.2128 8.38884 18.3332 9.78109 18.3332C11.1733 18.3332 12.2937 17.2128 14.5346 14.9719L16.0593 13.4473Z" stroke="#98A2B3"/>
<path d="M12.3418 7.65816C11.5658 6.88212 10.4125 6.77733 9.76574 7.42394C9.11913 8.07068 9.22392 9.224 9.99995 10C10.776 10.7759 10.8809 11.9293 10.2342 12.576C9.58743 13.2227 8.43411 13.1178 7.65821 12.3418M12.3418 7.65816L12.8101 7.18973M12.3418 7.65816C12.873 8.18938 13.0898 8.89732 12.9662 9.49862M7.65821 12.3418L7.18978 12.8102M7.65821 12.3418C7.21932 11.903 6.99518 11.3436 7.00008 10.8234" stroke="#98A2B3" stroke-linecap="round"/>
</svg>
