<svg width="20" height="20" viewBox="0 0 20 20" fill="none" xmlns="http://www.w3.org/2000/svg">
<g clip-path="url(#clip0_890_1523)">
<path fill-rule="evenodd" clip-rule="evenodd" d="M17.3728 1.56622C16.3964 0.589908 14.8135 0.589905 13.8372 1.56622L2.03921 13.3642C1.69021 13.7132 1.45232 14.1577 1.35552 14.6417L0.8663 17.0878C0.63306 18.254 1.66126 19.2822 2.82746 19.049L5.27357 18.5597C5.75755 18.463 6.20205 18.2251 6.55105 17.8761L18.349 6.07806C19.3253 5.10175 19.3253 3.51884 18.349 2.54253L17.3728 1.56622ZM15.0157 2.74473C15.3412 2.41929 15.8688 2.41929 16.1943 2.74473L17.1705 3.72104C17.496 4.04648 17.496 4.57411 17.1705 4.89955L14.9442 7.12588L12.7894 4.97105L15.0157 2.74473ZM11.6108 6.14957L3.21772 14.5427C3.10138 14.6591 3.02209 14.8072 2.98982 14.9686L2.5006 17.4147L4.94672 16.9254C5.10804 16.8932 5.25621 16.8139 5.37254 16.6976L13.7657 8.30439L11.6108 6.14957Z" fill="#FAB300"/>
</g>
<defs>
<clipPath id="clip0_890_1523">
<rect width="20" height="20" fill="white"/>
</clipPath>
</defs>
</svg>
