<svg width="25" height="24" viewBox="0 0 25 24" fill="none" xmlns="http://www.w3.org/2000/svg">
<path d="M2.5 12C2.5 8.22876 2.5 6.34315 3.67157 5.17157C4.84315 4 6.72876 4 10.5 4H14.5C18.2712 4 20.1569 4 21.3284 5.17157C22.5 6.34315 22.5 8.22876 22.5 12C22.5 15.7712 22.5 17.6569 21.3284 18.8284C20.1569 20 18.2712 20 14.5 20H10.5C6.72876 20 4.84315 20 3.67157 18.8284C2.5 17.6569 2.5 15.7712 2.5 12Z" stroke="#FFC93C" stroke-width="1.5"/>
<path d="M10.5 16H6.5" stroke="#FFC93C" stroke-width="1.5" stroke-linecap="round"/>
<path d="M14.5 16H13" stroke="#FFC93C" stroke-width="1.5" stroke-linecap="round"/>
<path d="M2.5 10H22.5" stroke="#FFC93C" stroke-width="1.5" stroke-linecap="round"/>
</svg>
