<svg width="25" height="24" viewBox="0 0 25 24" fill="none" xmlns="http://www.w3.org/2000/svg">
<path d="M12.2002 0C7.22995 0 3.2002 4.02975 3.2002 9C3.2002 10.9571 3.84182 12.753 4.90832 14.2238C4.92745 14.259 4.93045 14.2984 4.9522 14.3321L10.9522 23.3321C11.2304 23.7495 11.6992 24 12.2002 24C12.7012 24 13.1699 23.7495 13.4482 23.3321L19.4482 14.3321C19.4703 14.2984 19.4729 14.259 19.4921 14.2238C20.5586 12.753 21.2002 10.9571 21.2002 9C21.2002 4.02975 17.1704 0 12.2002 0ZM12.2002 12C10.5434 12 9.2002 10.6568 9.2002 9C9.2002 7.34325 10.5434 6 12.2002 6C13.8569 6 15.2002 7.34325 15.2002 9C15.2002 10.6568 13.8569 12 12.2002 12Z" fill="white"/>
</svg>
