<svg width="22" height="22" viewBox="0 0 22 22" fill="none" xmlns="http://www.w3.org/2000/svg">
<path d="M0.700195 7.9667C0.700195 5.35309 0.700195 4.0463 1.20883 3.04804C1.65624 2.16996 2.37015 1.45605 3.24824 1.00863C4.2465 0.5 5.55328 0.5 8.16689 0.5H14.2335C16.8471 0.5 18.1539 0.5 19.1521 1.00863C20.0302 1.45605 20.7442 2.16996 21.1915 3.04804C21.7002 4.0463 21.7002 5.35309 21.7002 7.9667V14.0333C21.7002 16.6469 21.7002 17.9537 21.1915 18.952C20.7442 19.83 20.0302 20.544 19.1521 20.9914C18.1539 21.5 16.8471 21.5 14.2335 21.5H8.16689C5.55328 21.5 4.2465 21.5 3.24824 20.9914C2.37015 20.544 1.65624 19.83 1.20883 18.952C0.700195 17.9537 0.700195 16.6469 0.700195 14.0333V7.9667Z" fill="white"/>
<path fill-rule="evenodd" clip-rule="evenodd" d="M17.2002 8.6087L17.2001 8.64058C17.2 8.654 17.1999 8.66742 17.1997 8.68085C17.2 8.69652 17.2002 8.71235 17.2002 8.72825C17.2002 11.2305 15.2507 13.4453 13.9462 14.9275C13.5677 15.3576 13.2435 15.726 13.0369 16.0218C12.3022 17.0739 11.9145 18.2138 11.8124 18.6522C11.8124 18.9823 11.5384 19.25 11.2002 19.25C10.862 19.25 10.588 18.9823 10.588 18.6522C10.4859 18.2138 10.0981 17.0739 9.36345 16.0218C9.15689 15.726 8.83267 15.3576 8.45415 14.9275C7.14967 13.4453 5.2002 11.2305 5.2002 8.72825C5.2002 8.71235 5.20035 8.69652 5.20065 8.68085C5.20035 8.65685 5.2002 8.63277 5.2002 8.6087C5.2002 5.37302 7.88647 2.75 11.2002 2.75C14.5139 2.75 17.2002 5.37302 17.2002 8.6087ZM11.2002 10.7609C12.4851 10.7609 13.5267 9.74375 13.5267 8.48915C13.5267 7.23447 12.4851 6.21739 11.2002 6.21739C9.9153 6.21739 8.8737 7.23447 8.8737 8.48915C8.8737 9.74375 9.9153 10.7609 11.2002 10.7609Z" fill="#34A851"/>
<path d="M16.5297 5.91466C15.795 4.53233 14.5127 3.47206 12.9635 3.00781L9.51758 6.92186C9.94125 6.48837 10.5387 6.21833 11.2008 6.21833C12.4857 6.21833 13.5273 7.23544 13.5273 8.49004C13.5273 9.00191 13.354 9.47418 13.0615 9.85406L16.5297 5.91466Z" fill="#4285F5"/>
<path d="M8.52328 15.0071C8.50025 14.9809 8.47708 14.9546 8.45368 14.928C7.5938 13.951 6.45367 12.6557 5.77637 11.1695L9.35788 7.10156C9.05398 7.48541 8.87315 7.96691 8.87315 8.48966C8.87315 9.74426 9.91483 10.7614 11.1997 10.7614C11.8506 10.7614 12.439 10.5004 12.8613 10.0797L8.52328 15.0071Z" fill="#F9BB0E"/>
<path d="M6.61986 4.82422C5.73425 5.84514 5.2002 7.16608 5.2002 8.60878C5.2002 8.63285 5.20035 8.65693 5.20065 8.68093C5.20035 8.6966 5.2002 8.71243 5.2002 8.72833C5.2002 9.58115 5.42667 10.4007 5.77686 11.1691L9.35234 7.10795L6.61986 4.82422Z" fill="#E74335"/>
<path d="M12.9631 3.0069C12.4058 2.83991 11.8139 2.75 11.2005 2.75C9.36423 2.75 7.72068 3.5554 6.62012 4.82415L9.35261 7.10787L9.35853 7.10112C9.40826 7.03835 9.46121 6.97812 9.51723 6.92082L12.9631 3.0069Z" fill="#1A73E6"/>
</svg>
