<svg width="20" height="20" viewBox="0 0 20 20" fill="none" xmlns="http://www.w3.org/2000/svg">
<path d="M15.5706 6.04837C15.139 6.04457 14.7594 5.7446 14.626 5.30198C14.0548 3.40751 12.2931 2 10.1789 2C8.06771 2 6.30382 3.4046 5.7318 5.30198C5.59835 5.74457 5.21871 6.04457 4.7872 6.04834C2.34666 6.07042 1.07334 9.02942 2.78759 10.8092C3.20046 11.2379 3.72337 11.5171 4.29494 11.6225L5.20867 17.4961C5.25382 17.7861 5.50353 18 5.79708 18C6.15966 18 14.3386 18 14.5609 18C14.8544 18 15.1041 17.7861 15.1493 17.4961L16.063 11.6225C16.6346 11.5171 17.1575 11.2378 17.5704 10.8092C19.2853 9.02853 18.0093 6.07048 15.5706 6.04837ZM6.30695 16.8091L5.50752 11.6703H7.72283L8.26557 16.8091H6.30695V16.8091ZM10.8946 16.8091H9.46308L8.92037 11.6703H11.4374L10.8946 16.8091ZM14.0508 16.8091H12.0922L12.6349 11.6703H14.8502L14.0508 16.8091ZM16.7125 9.98297C16.4041 10.3031 15.9897 10.4793 15.5454 10.4793C15.3537 10.4793 5.0019 10.4793 4.81225 10.4793C4.368 10.4793 3.95356 10.3031 3.64522 9.98297C2.65471 8.95466 3.39564 7.25074 4.79759 7.2392C5.7535 7.23074 6.58714 6.59038 6.87193 5.64575C7.29452 4.24425 8.60043 3.19093 10.1788 3.19093C11.7495 3.19093 13.0608 4.23655 13.4857 5.64575C13.7706 6.59042 14.6042 7.23077 15.5601 7.23923C16.9685 7.25083 17.6994 8.95847 16.7125 9.98297Z" fill="#98A2B3"/>
<path d="M10.1788 8.94154C10.5235 8.94154 10.8029 8.66212 10.8029 8.31745C10.8029 7.97277 10.5235 7.69336 10.1788 7.69336C9.8341 7.69336 9.55469 7.97277 9.55469 8.31745C9.55469 8.66212 9.8341 8.94154 10.1788 8.94154Z" fill="#98A2B3"/>
<path d="M13.1822 8.94154C13.5269 8.94154 13.8063 8.66212 13.8063 8.31745C13.8063 7.97277 13.5269 7.69336 13.1822 7.69336C12.8375 7.69336 12.5581 7.97277 12.5581 8.31745C12.5581 8.66212 12.8375 8.94154 13.1822 8.94154Z" fill="#98A2B3"/>
<path d="M7.17585 8.94154C7.52052 8.94154 7.79994 8.66212 7.79994 8.31745C7.79994 7.97277 7.52052 7.69336 7.17585 7.69336C6.83117 7.69336 6.55176 7.97277 6.55176 8.31745C6.55176 8.66212 6.83117 8.94154 7.17585 8.94154Z" fill="#98A2B3"/>
</svg>
