<svg width="20" height="20" viewBox="0 0 20 20" fill="none" xmlns="http://www.w3.org/2000/svg">
<path d="M11.1413 14.6432C10.5363 14.6449 9.96089 14.5162 9.41332 14.2641C9.29064 14.2077 9.19197 14.2254 9.07464 14.2871C8.27982 14.7051 7.43884 14.8154 6.56214 14.6285C6.37053 14.5876 6.25032 14.6361 6.10647 14.7772C4.77534 16.2615 1.79755 16.3732 1.11225 14.2159C0.512109 12.3856 0.965171 10.8116 2.33561 9.50583C2.55643 8.80126 2.93316 8.19826 3.49126 7.71333C3.5658 7.64855 3.5828 7.59993 3.54793 7.50589C3.34259 6.81185 3.87776 6.13233 4.42107 5.76437C4.65143 5.60626 4.8948 5.46139 5.14728 5.34226C6.88157 4.55443 8.93499 3.52706 10.774 4.5816C10.8365 4.61458 10.9368 4.63226 10.9966 4.60558C11.7032 4.28987 12.4239 4.27562 13.1547 4.49464C13.6598 4.64601 14.1194 4.89083 14.5439 5.20391C15.8171 5.56851 17.0804 5.91435 18.115 6.80476C19.4995 7.7437 19.6689 10.2079 17.6849 10.4846C17.1894 10.4946 17.1742 10.5099 17.0194 10.9713C16.7129 11.6028 16.2122 12.0025 15.5265 12.1291C14.2239 12.4451 14.7091 14.4541 11.1413 14.6432ZM4.49043 7.16791C5.91705 7.04476 7.21664 7.71928 8.11932 8.79589C9.06582 10.0325 9.61874 11.5747 9.74001 13.1218C9.74109 13.1613 9.79299 13.2105 9.83339 13.2361C11.2633 13.9864 13.2366 13.469 13.9603 11.9626C14.04 11.805 14.1228 11.6721 13.9983 11.5032C13.8657 10.7101 13.7246 9.91274 13.4114 9.16039C12.5439 7.17685 10.6203 4.68841 8.19353 5.26258C7.04841 5.64239 5.17024 6.14051 4.49043 7.16791ZM3.49468 9.36124C5.21653 9.60593 5.99845 11.8637 6.36784 13.328C6.3898 13.4147 6.41403 13.4575 6.50941 13.4707C6.67234 13.4933 6.83268 13.5352 6.99384 13.5702C7.37105 13.698 8.51486 13.525 8.66472 13.1571C8.38353 11.1896 7.56939 8.86428 5.44651 8.29487C4.58053 8.00487 3.87332 8.62916 3.49468 9.36124ZM3.53374 14.7491C4.18178 14.7431 4.74814 14.5313 5.22553 14.0862C5.33882 13.9806 5.41695 13.8842 5.30759 13.7282C4.9223 12.695 4.7187 11.5119 3.85607 10.744C1.95253 9.34437 1.03136 14.9646 3.53374 14.7491ZM15.027 11.148C15.6676 11.143 16.1797 10.7385 16.1586 10.1265C16.0929 9.93095 15.994 9.74408 15.9485 9.5446C15.5372 7.59193 14.1577 5.20358 11.8769 5.35231C13.7269 6.87447 14.7151 8.8267 15.027 11.148ZM16.0049 6.76439C16.4783 7.54245 16.7094 8.40493 16.9748 9.2657C17.0838 9.66195 17.8335 9.26028 18.0182 9.07908C18.1491 8.96599 18.2004 8.83312 18.1398 8.68464C17.8484 7.69399 16.8978 7.12431 16.0049 6.76439Z" fill="#98A2B3"/>
</svg>
