<svg width="20" height="20" viewBox="0 0 20 20" fill="none" xmlns="http://www.w3.org/2000/svg">
<path fill-rule="evenodd" clip-rule="evenodd" d="M16.5907 0.548771C16.0383 0.239461 15.4502 0.208311 14.8286 0.286001C14.2381 0.359801 13.5198 0.546511 12.6565 0.770901L10.6382 1.2954C9.77525 1.51963 9.05675 1.70634 8.50695 1.92891C7.92895 2.16293 7.42918 2.47736 7.10501 3.02195C6.77878 3.56998 6.74639 4.15584 6.82769 4.76777C6.90434 5.34473 7.0978 6.04488 7.32828 6.87901L7.87083 8.8429C8.10136 9.6775 8.29474 10.3775 8.52565 10.9139C8.77075 11.4835 9.09825 11.9684 9.65385 12.2795C10.2062 12.5888 10.7943 12.62 11.416 12.5423C12.0064 12.4685 12.7248 12.2818 13.588 12.0574L15.6064 11.5329C16.4693 11.3086 17.1878 11.1219 17.7375 10.8994C18.3155 10.6653 18.8153 10.3509 19.1395 9.8063C19.4657 9.2583 19.4981 8.6724 19.4168 8.0605C19.3401 7.48355 19.1467 6.7834 18.9162 5.94926L18.3736 3.98536C18.1431 3.1508 17.9497 2.45076 17.7189 1.91434C17.4737 1.34477 17.1463 0.859891 16.5907 0.548771ZM12.9848 2.2354C13.9097 1.99503 14.5329 1.83463 15.0146 1.77442C15.4762 1.71673 15.6972 1.7676 15.8578 1.85754C16.0152 1.94567 16.1654 2.09931 16.3411 2.50734C16.5263 2.93768 16.6935 3.53684 16.9418 4.43548L17.4562 6.29754C17.7046 7.19641 17.8685 7.79611 17.9299 8.2581C17.9881 8.6968 17.936 8.8956 17.8506 9.0391C17.7631 9.186 17.6045 9.3349 17.1746 9.509C16.7269 9.6903 16.1048 9.8535 15.1796 10.0939L13.2598 10.5929C12.3348 10.8333 11.7116 10.9937 11.2299 11.0539C10.7683 11.1116 10.5474 11.0607 10.3867 10.9707C10.2294 10.8826 10.0791 10.729 9.90345 10.3209C9.71825 9.8906 9.55095 9.2914 9.30265 8.3928L8.78825 6.53074C8.53995 5.63187 8.376 5.03217 8.31462 4.57022C8.25633 4.13148 8.30851 3.93269 8.39393 3.78921C8.48139 3.64227 8.63995 3.49334 9.06985 3.31928C9.51765 3.138 10.1398 2.97476 11.0649 2.73434L12.9848 2.2354Z" fill="black"/>
<path fill-rule="evenodd" clip-rule="evenodd" d="M1.7007 2.72475C1.30157 2.61402 0.888231 2.84781 0.777491 3.24694C0.666751 3.64608 0.900541 4.05942 1.29968 4.17015L3.00338 4.64284C3.42898 4.76092 3.74592 5.08242 3.85419 5.47433L5.8055 12.5375C5.73053 12.5522 5.6556 12.5693 5.5808 12.5888C3.60375 13.1026 2.39563 15.0914 2.93836 17.0559C3.47848 19.0109 5.53215 20.1385 7.50137 19.6267C9.2247 19.1789 10.3638 17.6103 10.2683 15.914L18.6888 13.7257C19.0897 13.6215 19.3303 13.212 19.2261 12.8111C19.1219 12.4102 18.7124 12.1697 18.3115 12.2739L9.8734 14.4668C9.3651 13.4795 8.43146 12.7928 7.36688 12.5563L5.30003 5.07489C5.0469 4.15866 4.32129 3.45183 3.4044 3.19744L1.7007 2.72475ZM5.95809 14.0405C7.16981 13.7256 8.38575 14.4289 8.698 15.559C9.0076 16.6797 8.32797 17.8621 7.12408 18.1749C5.91235 18.4898 4.69641 17.7865 4.3842 16.6564C4.0746 15.5358 4.75419 14.3534 5.95809 14.0405Z" fill="black"/>
</svg>
