<svg width="19" height="18" viewBox="0 0 19 18" fill="none" xmlns="http://www.w3.org/2000/svg">
<path d="M11.7639 12.9375L10.0958 11.2834C9.2909 10.4851 8.8884 10.086 8.4266 9.9401C8.0204 9.8118 7.5838 9.8165 7.18048 9.9536C6.72188 10.1095 6.32814 10.5172 5.54068 11.3326L1.54409 15.2801M11.7639 12.9375L12.1053 12.599C12.9112 11.7998 13.3141 11.4002 13.7765 11.2543C14.1831 11.126 14.62 11.1311 15.0236 11.2687C15.4824 11.4251 15.8761 11.8339 16.6634 12.6514L17.5 13.4934M11.7639 12.9375L15.775 16.9565M1.54409 15.2801C1.57512 15.5321 1.62796 15.7313 1.71799 15.908C1.90973 16.2843 2.21569 16.5903 2.59202 16.782C3.01984 17 3.57989 17 4.7 17H14.3C14.9543 17 15.4176 17 15.775 16.9565M1.54409 15.2801C1.5 14.9221 1.5 14.4575 1.5 13.8V4.2C1.5 3.0799 1.5 2.51984 1.71799 2.09202C1.90973 1.71569 2.21569 1.40973 2.59202 1.21799C3.01984 1 3.57989 1 4.7 1H14.3C15.4201 1 15.9802 1 16.408 1.21799C16.7843 1.40973 17.0903 1.71569 17.282 2.09202C17.5 2.51984 17.5 3.0799 17.5 4.2V13.4934M17.5 13.4934V13.8C17.5 14.9201 17.5 15.4802 17.282 15.908C17.0903 16.2843 16.7843 16.5903 16.408 16.782C16.2301 16.8727 16.0293 16.9256 15.775 16.9565M14.5 5.99989C14.5 7.1045 13.6046 7.9999 12.5 7.9999C11.3954 7.9999 10.5 7.1045 10.5 5.99989C10.5 4.89532 11.3954 3.99989 12.5 3.99989C13.6046 3.99989 14.5 4.89532 14.5 5.99989Z" stroke="black" stroke-width="1.5" stroke-linecap="round" stroke-linejoin="round"/>
</svg>
