<svg width="25" height="24" viewBox="0 0 25 24" fill="none" xmlns="http://www.w3.org/2000/svg">
<path d="M12.5 7.75C11.8787 7.75 11.375 8.25368 11.375 8.875C11.375 9.28921 11.0392 9.625 10.625 9.625C10.2108 9.625 9.875 9.28921 9.875 8.875C9.875 7.42525 11.0503 6.25 12.5 6.25C13.9497 6.25 15.125 7.42525 15.125 8.875C15.125 9.83834 14.6056 10.6796 13.8353 11.1354C13.6385 11.2518 13.4761 11.3789 13.3703 11.5036C13.2675 11.6246 13.25 11.7036 13.25 11.75V13C13.25 13.4142 12.9142 13.75 12.5 13.75C12.0858 13.75 11.75 13.4142 11.75 13V11.75C11.75 11.2441 11.9715 10.8336 12.2266 10.533C12.4786 10.236 12.7929 10.0092 13.0715 9.84439C13.4044 9.64739 13.625 9.28655 13.625 8.875C13.625 8.25368 13.1213 7.75 12.5 7.75Z" fill="#667085"/>
<path d="M12.5 17C13.0523 17 13.5 16.5523 13.5 16C13.5 15.4477 13.0523 15 12.5 15C11.9477 15 11.5 15.4477 11.5 16C11.5 16.5523 11.9477 17 12.5 17Z" fill="#667085"/>
<path fill-rule="evenodd" clip-rule="evenodd" d="M12.4426 1.25H12.5574C14.8658 1.24999 16.6748 1.24998 18.0863 1.43975C19.531 1.63399 20.6711 2.03933 21.5659 2.93414C22.4607 3.82895 22.866 4.96897 23.0603 6.41371C23.25 7.82519 23.25 9.63423 23.25 11.9426V12.0574C23.25 14.3658 23.25 16.1748 23.0603 17.5863C22.866 19.031 22.4607 20.1711 21.5659 21.0659C20.6711 21.9607 19.531 22.366 18.0863 22.5603C16.6748 22.75 14.8658 22.75 12.5574 22.75H12.4426C10.1342 22.75 8.32519 22.75 6.91371 22.5603C5.46897 22.366 4.32895 21.9607 3.43414 21.0659C2.53933 20.1711 2.13399 19.031 1.93975 17.5863C1.74998 16.1748 1.74999 14.3658 1.75 12.0574V11.9426C1.74999 9.63424 1.74998 7.82519 1.93975 6.41371C2.13399 4.96897 2.53933 3.82895 3.43414 2.93414C4.32895 2.03933 5.46897 1.63399 6.91371 1.43975C8.32519 1.24998 10.1342 1.24999 12.4426 1.25ZM7.11358 2.92637C5.83517 3.09825 5.06445 3.42514 4.4948 3.9948C3.92514 4.56445 3.59825 5.33517 3.42637 6.61358C3.25159 7.91356 3.25 9.62177 3.25 12C3.25 14.3782 3.25159 16.0864 3.42637 17.3864C3.59825 18.6648 3.92514 19.4355 4.4948 20.0052C5.06445 20.5749 5.83517 20.9018 7.11358 21.0736C8.41356 21.2484 10.1218 21.25 12.5 21.25C14.8782 21.25 16.5864 21.2484 17.8864 21.0736C19.1648 20.9018 19.9355 20.5749 20.5052 20.0052C21.0749 19.4355 21.4018 18.6648 21.5736 17.3864C21.7484 16.0864 21.75 14.3782 21.75 12C21.75 9.62177 21.7484 7.91356 21.5736 6.61358C21.4018 5.33517 21.0749 4.56445 20.5052 3.9948C19.9355 3.42514 19.1648 3.09825 17.8864 2.92637C16.5864 2.75159 14.8782 2.75 12.5 2.75C10.1218 2.75 8.41356 2.75159 7.11358 2.92637Z" fill="#667085"/>
</svg>
