<svg width="25" height="24" viewBox="0 0 25 24" fill="none" xmlns="http://www.w3.org/2000/svg">
<g clip-path="url(#clip0_850_7183)">
<path d="M10.25 20.001C10.2494 19.3961 10.4483 18.8078 10.816 18.3274C11.1836 17.8471 11.6995 17.5013 12.2835 17.3439C12.8676 17.1865 13.4873 17.2261 14.0466 17.4566C14.6059 17.6871 15.0735 18.0957 15.377 18.619C17.467 17.697 18.25 16.25 18.25 13.5V10.5C18.25 6.508 15.999 3.75 12.5 3.75C9.001 3.75 6.75 6.509 6.75 10.5V14C6.74974 14.1988 6.67063 14.3894 6.53004 14.53C6.38944 14.6706 6.19883 14.7497 6 14.75H5C4.27107 14.7492 3.57221 14.4594 3.05669 13.944C2.54116 13.4287 2.25106 12.7299 2.25 12.001L2.25 11.001C2.25079 10.2718 2.54075 9.57269 3.05627 9.05698C3.5718 8.54127 4.27081 8.25106 5 8.25H5.478C6.235 4.679 8.826 2.25 12.5 2.25C16.174 2.25 18.764 4.679 19.521 8.25H19.999C20.728 8.25106 21.4269 8.54113 21.9424 9.05662C22.4579 9.57212 22.7479 10.271 22.749 11V12C22.7482 12.7291 22.4582 13.4281 21.9427 13.9437C21.4271 14.4592 20.7281 14.7492 19.999 14.75H19.69C19.6514 15.9344 19.254 17.0792 18.5505 18.0327C17.8469 18.9863 16.8703 19.7037 15.75 20.09C15.7382 20.8193 15.4371 21.5141 14.9131 22.0215C14.389 22.5289 13.6848 22.8073 12.9555 22.7955C12.2262 22.7837 11.5314 22.4826 11.024 21.9586C10.5166 21.4345 10.2382 20.7303 10.25 20.001ZM11.75 20.001C11.75 20.2482 11.8233 20.4899 11.9607 20.6955C12.098 20.901 12.2932 21.0612 12.5216 21.1558C12.7501 21.2505 13.0014 21.2752 13.2439 21.227C13.4863 21.1788 13.7091 21.0597 13.8839 20.8849C14.0587 20.7101 14.1778 20.4873 14.226 20.2449C14.2742 20.0024 14.2495 19.7511 14.1548 19.5226C14.0602 19.2942 13.9 19.099 13.6945 18.9617C13.4889 18.8243 13.2472 18.751 13 18.751C12.6686 18.7513 12.3508 18.883 12.1164 19.1174C11.882 19.3518 11.7503 19.6696 11.75 20.001ZM19.75 13.251H19.999C20.3306 13.251 20.6487 13.1193 20.8832 12.8849C21.1178 12.6506 21.2497 12.3326 21.25 12.001V11.001C21.25 10.6694 21.1183 10.3513 20.8839 10.1168C20.6496 9.88218 20.3316 9.75027 20 9.75H19.75V13.251ZM3.75 11.001V12.001C3.75053 12.3323 3.88243 12.6498 4.11676 12.8839C4.3511 13.1181 4.66873 13.2497 5 13.25H5.25V9.75H5C4.66839 9.75027 4.35045 9.88218 4.11606 10.1168C3.88166 10.3513 3.75 10.6694 3.75 11.001Z" fill="#667085"/>
</g>
<defs>
<clipPath id="clip0_850_7183">
<rect width="24" height="24" fill="white" transform="translate(0.5)"/>
</clipPath>
</defs>
</svg>
