<svg width="25" height="24" viewBox="0 0 25 24" fill="none" xmlns="http://www.w3.org/2000/svg">
<path d="M8.91358 10.828H14.5556C14.6869 10.828 14.8169 10.8539 14.9383 10.9041C15.0596 10.9544 15.1698 11.028 15.2627 11.1209C15.3555 11.2138 15.4292 11.324 15.4795 11.4453C15.5297 11.5666 15.5556 11.6967 15.5556 11.828C15.5556 11.9593 15.5297 12.0894 15.4795 12.2107C15.4292 12.332 15.3555 12.4422 15.2627 12.5351C15.1698 12.628 15.0596 12.7016 14.9383 12.7519C14.8169 12.8021 14.6869 12.828 14.5556 12.828H8.91358L10.0356 13.95C10.2231 14.1376 10.3284 14.3921 10.3283 14.6574C10.3282 14.9226 10.2227 15.177 10.0351 15.3645C9.84744 15.552 9.593 15.6573 9.32773 15.6572C9.06246 15.6571 8.80809 15.5516 8.62058 15.364L5.79258 12.536C5.69925 12.4433 5.62517 12.3331 5.57462 12.2117C5.52407 12.0903 5.49805 11.96 5.49805 11.8285C5.49805 11.697 5.52407 11.5667 5.57462 11.4453C5.62517 11.3239 5.69925 11.2137 5.79258 11.121L8.61958 8.293C8.80709 8.10536 9.06146 7.99989 9.32673 7.9998C9.592 7.9997 9.84644 8.10499 10.0341 8.2925C10.2217 8.48001 10.3272 8.73438 10.3273 8.99965C10.3274 9.26492 10.2221 9.51936 10.0346 9.707L8.91358 10.828ZM18.4996 3C18.7648 3 19.0192 3.10536 19.2067 3.29289C19.3942 3.48043 19.4996 3.73478 19.4996 4V20C19.4996 20.2652 19.3942 20.5196 19.2067 20.7071C19.0192 20.8946 18.7648 21 18.4996 21C18.2344 21 17.98 20.8946 17.7925 20.7071C17.6049 20.5196 17.4996 20.2652 17.4996 20V4C17.4996 3.73478 17.6049 3.48043 17.7925 3.29289C17.98 3.10536 18.2344 3 18.4996 3Z" fill="#667085"/>
</svg>
