<svg width="25" height="24" viewBox="0 0 25 24" fill="none" xmlns="http://www.w3.org/2000/svg">
<path d="M12.6605 10.87C12.5605 10.86 12.4405 10.86 12.3305 10.87C9.95055 10.79 8.06055 8.84 8.06055 6.44C8.06055 3.99 10.0405 2 12.5005 2C14.9505 2 16.9405 3.99 16.9405 6.44C16.9305 8.84 15.0405 10.79 12.6605 10.87Z" stroke="#667085" stroke-width="1.5" stroke-linecap="round" stroke-linejoin="round"/>
<path d="M7.6607 14.56C5.2407 16.18 5.2407 18.82 7.6607 20.43C10.4107 22.27 14.9207 22.27 17.6707 20.43C20.0907 18.81 20.0907 16.17 17.6707 14.56C14.9307 12.73 10.4207 12.73 7.6607 14.56Z" stroke="#667085" stroke-width="1.5" stroke-linecap="round" stroke-linejoin="round"/>
</svg>
